<?xml version="1.0" encoding="utf-8"?>
<!-- Generator: Adobe Illustrator 16.0.0, SVG Export Plug-In . SVG Version: 6.00 Build 0)  -->
<!DOCTYPE svg PUBLIC "-//W3C//DTD SVG 1.1//EN" "http://www.w3.org/Graphics/SVG/1.1/DTD/svg11.dtd">
<svg version="1.1" id="Calque_1" xmlns="http://www.w3.org/2000/svg" xmlns:xlink="http://www.w3.org/1999/xlink" x="0px" y="0px"
	 width="62.361px" height="59.869px" viewBox="0 0 62.361 59.869" enable-background="new 0 0 62.361 59.869" xml:space="preserve">
<g>
	<polygon fill="#566B72" points="22.677,5.67 22.677,5.71 17.008,11.379 17.008,11.338 11.338,17.008 11.338,17.049 5.669,22.717 
		5.669,22.677 0,28.346 0,31.521 5.669,37.191 5.669,30.734 11.338,25.066 11.338,42.86 17.008,48.53 17.008,19.396 22.677,13.728 
		22.677,54.199 28.346,59.869 28.346,0 	"/>
	<g>
		<g>
			<polygon fill="#9AADAF" points="56.692,22.678 56.692,22.679 51.023,17.01 45.353,11.34 45.353,19.357 51.023,25.027 
				55.927,29.932 45.361,40.497 45.361,48.515 56.692,37.184 56.692,37.191 62.361,31.522 62.361,28.347 			"/>
			<polygon fill="#566B72" points="39.685,46.174 39.685,5.67 34.015,0 34.015,59.869 39.685,54.199 39.685,54.191 45.361,48.515 
				45.361,40.497 			"/>
		</g>
	</g>
</g>
</svg>
